<?xml version="1.0" encoding="UTF-8" standalone="no"?>
<!-- Created with Inkscape (http://www.inkscape.org/) -->

<svg
   xmlns:dc="http://purl.org/dc/elements/1.1/"
   xmlns:cc="http://creativecommons.org/ns#"
   xmlns:rdf="http://www.w3.org/1999/02/22-rdf-syntax-ns#"
   xmlns:svg="http://www.w3.org/2000/svg"
   xmlns="http://www.w3.org/2000/svg"
   xmlns:sodipodi="http://sodipodi.sourceforge.net/DTD/sodipodi-0.dtd"
   xmlns:inkscape="http://www.inkscape.org/namespaces/inkscape"
   width="100"
   height="150"
   viewBox="0 0 26.458333 39.687501"
   version="1.1"
   id="svg8"
   inkscape:version="0.92.5 (2060ec1f9f, 2020-04-08)"
   sodipodi:docname="qm.svg">
  <defs
     id="defs2" />
  <sodipodi:namedview
     id="base"
     pagecolor="#ffffff"
     bordercolor="#666666"
     borderopacity="1.0"
     inkscape:pageopacity="0.0"
     inkscape:pageshadow="2"
     inkscape:zoom="2.8"
     inkscape:cx="29.582085"
     inkscape:cy="109.37891"
     inkscape:document-units="px"
     inkscape:current-layer="flowRoot815"
     showgrid="false"
     units="px"
     inkscape:window-width="2556"
     inkscape:window-height="1400"
     inkscape:window-x="1920"
     inkscape:window-y="18"
     inkscape:window-maximized="0" />
  <metadata
     id="metadata5">
    <rdf:RDF>
      <cc:Work
         rdf:about="">
        <dc:format>image/svg+xml</dc:format>
        <dc:type
           rdf:resource="http://purl.org/dc/dcmitype/StillImage" />
        <dc:title></dc:title>
      </cc:Work>
    </rdf:RDF>
  </metadata>
  <g
     inkscape:label="Layer 1"
     inkscape:groupmode="layer"
     id="layer1"
     transform="translate(0,-257.3125)">
    <g
       aria-label="?"
       transform="matrix(1.3842489,0,0,1.3842489,-15.250308,218.96649)"
       style="font-style:normal;font-variant:normal;font-weight:normal;font-stretch:normal;font-size:40px;line-height:1.25;font-family:Ubuntu;-inkscape-font-specification:Ubuntu;letter-spacing:0px;word-spacing:0px;fill:#ffd001;fill-opacity:1;stroke:none"
       id="flowRoot815">
      <path
         d="m 20.072159,34.778643 c -2.118303,-0.07231 -1.750799,1.440411 -3.230434,2.294786 -1.639959,0.882398 -3.541262,-0.284642 -2.634835,-3.195471 0.805179,-1.94154 2.008587,-2.335619 3.104588,-2.60445 1.096001,-0.289509 2.171323,-0.434264 3.225965,-0.434264 1.323473,0 2.409134,0.175774 3.256983,0.527321 0.868529,0.351547 1.550945,0.796152 2.047247,1.333812 0.496303,0.537661 0.83751,1.12702 1.023624,1.768077 0.206793,0.641058 0.310189,1.251095 0.310189,1.830115 0,0.579019 -0.09306,1.11668 -0.27917,1.612982 -0.165433,0.475623 -0.382566,0.920228 -0.651397,1.333813 -0.268831,0.413585 -0.57902,0.806491 -0.930567,1.178718 -0.351547,0.372226 -0.692755,0.723773 -1.023623,1.054642 -0.248151,0.248151 -0.506642,0.516982 -0.775473,0.806491 -0.26883,0.268831 -0.516981,0.55834 -0.744452,0.868529 -0.206793,0.310189 -0.382567,0.641057 -0.527322,0.992605 -0.144755,0.330868 -0.217132,0.672076 -0.217132,1.023623 v 0.372227 c 0,2.186871 -4.156532,2.254493 -4.156532,-0.248151 v -0.682416 c 0,-0.57902 0.07238,-1.096001 0.217132,-1.550945 0.144755,-0.475622 0.330869,-0.909887 0.55834,-1.302793 0.248151,-0.413585 0.527321,-0.796152 0.83751,-1.147699 0.31019,-0.351547 0.630718,-0.692755 0.961586,-1.023624 0.475624,-0.475622 0.909888,-0.940906 1.302794,-1.39585 0.392906,-0.475622 0.589358,-1.013284 0.589358,-1.612982 0,-0.496302 -0.196452,-0.920227 -0.589358,-1.271775 -0.372227,-0.351547 -0.930567,-0.527321 -1.675021,-0.527321 z m 2.884757,15.602503 c 0,0.909887 -0.299848,1.612982 -0.899547,2.109285 -0.579019,0.496302 -1.240756,0.744453 -1.98521,0.744453 -0.744452,0 -1.416529,-0.248151 -2.016227,-0.744453 -0.57902,-0.496303 -0.86853,-1.199398 -0.86853,-2.109285 0,-0.909887 0.28951,-1.612982 0.86853,-2.109285 0.599698,-0.496302 1.271775,-0.744453 2.016227,-0.744453 0.744454,0 1.406191,0.248151 1.98521,0.744453 0.599699,0.496303 0.899547,1.199398 0.899547,2.109285 z"
         style="font-style:normal;font-variant:normal;font-weight:bold;font-stretch:normal;font-family:Ubuntu;-inkscape-font-specification:'Ubuntu Bold';fill:#ffd001;fill-opacity:1;stroke-width:0.77547228"
         id="path853"
         inkscape:connector-curvature="0"
         sodipodi:nodetypes="ccccscscscssscccsccsccsccsccscscscscs" />
    </g>
  </g>
</svg>
